<svg xmlns="http://www.w3.org/2000/svg" xmlns:xlink="http://www.w3.org/1999/xlink" width="651.674" height="767.766" viewBox="0 0 651.674 767.766">
  <defs>
    <filter id="Path_678" x="0" y="0" width="651.674" height="767.766" filterUnits="userSpaceOnUse">
      <feOffset dy="6" input="SourceAlpha"/>
      <feGaussianBlur stdDeviation="8" result="blur"/>
      <feFlood flood-opacity="0.11"/>
      <feComposite operator="in" in2="blur"/>
      <feComposite in="SourceGraphic"/>
    </filter>
  </defs>
  <g transform="matrix(1, 0, 0, 1, 0, 0)" filter="url(#Path_678)">
    <path id="Path_678-2" data-name="Path 678" d="M316.753,713.59a21.093,21.093,0,0,1-29.826,0L88.406,515.129A301.874,301.874,0,0,1,457.539,43.116c-.5.6,6.247,33.057,10.215,74.164,4.04,41.852,5.745,93.722,6.028,104.848a593.024,593.024,0,0,1-1.746,60.409,354.55,354.55,0,0,1-7.634,52.808q-5.461,23.731-14.247,41.068t-21.291,25.963a29.752,29.752,0,0,1-22.043,5.024,27.527,27.527,0,0,1-10.42-4.082,29.81,29.81,0,0,1-8.442-8.3l-61.626-89.214L304.8,477.4a29.161,29.161,0,0,1-4.249,10.945,29.12,29.12,0,0,1-18.263,12.464,29.985,29.985,0,0,1-11.122.209,28.941,28.941,0,0,1-19.048-12.255l-120.7-174.754s-19.02-30.913-6.092-40.725c15.951-12.111,26.06-7.936,26.06-7.936l106.089,129L279.12,222.129A28.445,28.445,0,0,1,301.8,199.152a27.835,27.835,0,0,1,16.787,1.314,28.433,28.433,0,0,1,13.039,10.425l78.519,113.681a326.456,326.456,0,0,0,6.213-50.736q1.066-25.18-.316-50.165t-4.43-49.641c-.971-7.866-4.634-38.449-9.324-71.275a222.981,222.981,0,1,0,93.258,88.787c.813-59.72-4.623-82.745-11.283-133.069,9.585,7.518,22.261,21.162,31.014,29.911a301.7,301.7,0,0,1,0,426.747Z" transform="translate(24 18)" fill="#fff" fill-rule="evenodd"/>
  </g>
</svg>
