<?xml version="1.0" encoding="utf-8"?>
<!-- Generator: Adobe Illustrator 26.2.0, SVG Export Plug-In . SVG Version: 6.00 Build 0)  -->
<svg version="1.1" id="Layer_1" xmlns="http://www.w3.org/2000/svg" xmlns:xlink="http://www.w3.org/1999/xlink" x="0px" y="0px"
	 viewBox="0 0 105 45" style="enable-background:new 0 0 105 45;" xml:space="preserve">
<style type="text/css">
	.st0{fill-rule:evenodd;clip-rule:evenodd;fill:#4B81FF;}
	.st1{fill:#4B81FF;}
</style>
<g id="Group_3739" transform="translate(-1046 801)">
	<path id="Shape_1_copy_3" class="st0" d="M1062.5-797.7c0,0-2.8-2.1-7.6-2.3c-1.1,0-2.1,0.1-3.2,0.4c-1.2,0.3-2.4,0.8-3.4,1.6
		c-1.3,1.1-2.5,3-2,4.8c0.3,1.2,1.3,2.2,2.4,2.8c0.6,0.3,1.3,0.6,2,0.8c1.9,0.5,3.8,0.9,6.9,1.6c1.9,0.4,3.1,1.5,3.3,3
		c0.2,3.3-5,5-7.2,5.2c-3.7,0.3-7.4-1.3-7.4-1.3l-0.4,0.6c2.3,1.2,4.8,1.9,7.4,1.8c5,0,11.4-2.7,11.5-7.8c0-4.6-4.6-5.4-6.8-6
		c-1.3-0.3-6.9-1-7.6-3c-0.5-1.4,1.2-3.2,4.8-3.5c1.1-0.1,3.8,0.3,6.8,1.7L1062.5-797.7z"/>
	<g id="Ellipse_1_copy_3" transform="translate(326.804 16.884)">
		<path id="Path_4789" class="st0" d="M768.9-797.1c-1.2-0.3-3.8-0.8-8.2,0.1l1.8-1.2c6.5,0.1,10.3-2.5,10-7.1
			c-0.2-3.9-2.3-5.2-4.2-5.9c-0.2-0.1-0.2-0.2-0.2-0.4c0,0,0-0.1,0.1-0.1c2-1.7,1.8-3.1,1.8-3.1l-4.1-0.1c0.3,2.3-1.1,2.7-2.2,2.8
			c-4.8-0.5-7.5,2.4-7.9,5.5c-0.3,1.9-0.5,5.3,2.9,7.2c0.1,0.1,0.1,0.2,0,0.2l-0.5,0.3l-2.7,1.8l1.3,3.2c0,0,11.2-3.7,12.3,1
			c0.4,1.7-1.9,3.9-4.8,5.1c-2.6,0.7-5.6,0.9-8.2,0.2v0.5c0,0,7.2,1.8,12.3-0.2c1.7-0.7,4.7-2.2,4.7-5.5
			C773.2-792.9,773.6-795.8,768.9-797.1z M763.9-810.5c2.7-0.1,4.8,2.3,4.7,5.7c-0.1,3.8-3.5,5-4.7,4.9c-1.6-0.1-3.9-2.3-4-4.7
			C759.6-808.5,761.7-810.4,763.9-810.5z"/>
	</g>
	<path id="Shape_3" class="st1" d="M1078-778.9c-2,0-2.9-1.1-3.1-1.5c-1.1,0.9-2.4,1.6-4.9,1.7c-0.9,0-1.6-0.1-2.3-0.6
		c-0.6-0.4-1.1-1-1.4-1.7c-0.4-0.9-0.5-1.8-0.6-2.7c0.1-1.8,0.7-3.2,2.3-4.1c2.7-1.4,5-1.5,6.6-2c0.9-0.3,1.7-0.9,1.4-2.1
		c-0.3-1.1-2-1.5-3.3-1.5c-1.6,0-3.3,0.3-4.8,1.5l-0.9-2.5c2.1-0.7,4.3-1.2,5.5-1.2c4.7-0.2,6,0.9,6.5,1.5c0.5,0.5,0.9,1.2,0.9,1.9
		c0.2,2.2,0,9,0,9c0,0.8,0.2,1.5,1.1,1.5c0.3,0,0.6-0.1,0.8-0.4v2C1080.8-779.3,1079-778.9,1078-778.9z M1075.9-788.7
		c-1.4,0.1-2.4,0.7-3.7,1.3c-0.8,0.4-2.5,1.4-2.7,3c-0.3,1.3,0.8,3.1,2.9,3.2c1.5,0,3.1-1.2,3.3-2.7
		C1076-785.3,1075.9-788.7,1075.9-788.7L1075.9-788.7z"/>
	<path id="Ellipse_1_copy_2" class="st1" d="M1100.1-787.3c0-1.5,0.3-3,1-4.3c0.6-1.2,1.6-2.2,2.8-2.9c0.7-0.4,1.4-0.6,2.1-0.8
		c1.1-0.2,2.2-0.3,3.3-0.2c1,0,2.1,0.2,3,0.6c0.3,0.1,0.6,0.3,0.9,0.5c1.2,0.7,2.2,1.7,2.8,3c0.7,1.3,1,2.7,1,4.1v0.4
		c-0.3,6.6-4.6,7.8-7.5,8.1C1103.2-778.2,1100-782.4,1100.1-787.3z M1108.4-794.1c-2.3,0.1-4.2,3-4.2,7c-0.1,4.4,2.3,7.3,4.2,7.1
		c2.6-0.2,4.4-3.3,4.5-7.2C1113-790.8,1110.3-794.2,1108.4-794.1L1108.4-794.1z"/>
	<path id="Ellipse_1_copy_2-2" class="st1" d="M1117.7-787.3c0-1.5,0.3-3,1-4.3c0.6-1.2,1.6-2.2,2.8-2.9c0.7-0.4,1.4-0.6,2.1-0.8
		c1.1-0.2,2.2-0.3,3.3-0.2c1,0,2.1,0.2,3,0.6c0.3,0.1,0.6,0.3,0.9,0.5c1.2,0.7,2.2,1.7,2.8,3c0.7,1.3,1,2.7,1,4.1v0.4
		c-0.3,6.6-4.6,7.8-7.5,8.1C1120.8-778.2,1117.7-782.4,1117.7-787.3z M1126-794.1c-2.3,0.1-4.2,3-4.2,7c-0.1,4.4,2.3,7.3,4.2,7.1
		c2.6-0.2,4.4-3.3,4.5-7.2C1130.7-790.8,1127.9-794.2,1126-794.1L1126-794.1z"/>
	<path id="Shape_2" class="st0" d="M1135.5-795v16h4.1v-10.4c0-0.5,0.1-1,0.4-1.4c0.5-0.8,1.4-1.8,3-1.9c1.3-0.1,3.9,0.9,3.9,2.8
		c-0.1,2.8-0.1,10.9-0.1,10.9h4.2v-0.4v-1v-1.5v-1.8v-2v-1.9v-1.7v-1.3c0-0.5,0-1-0.2-1.5c-0.1-0.4-0.3-0.8-0.5-1.1
		c-0.3-0.4-0.7-0.8-1.1-1.1c-0.6-0.4-1.2-0.7-1.8-0.8c-0.5-0.1-1-0.2-1.5-0.2c-2.2,0-4.3,1-6.1,2.1v-1.8L1135.5-795z"/>
</g>
<g>
	<g>
		<path d="M12.1,35.6c-0.7,0-1.3,0.2-1.7,0.7s-0.6,1.1-0.6,2s0.2,1.5,0.6,2c0.4,0.5,1,0.7,1.7,0.7c0.5,0,1-0.1,1.6-0.2v0.7
			c-0.5,0.2-1,0.3-1.7,0.3c-1,0-1.7-0.3-2.2-0.9C9.2,40.2,9,39.3,9,38.2c0-0.7,0.1-1.3,0.4-1.8c0.3-0.5,0.6-0.9,1.1-1.2
			s1-0.4,1.7-0.4s1.3,0.1,1.8,0.4l-0.3,0.7C13.1,35.7,12.6,35.6,12.1,35.6z"/>
		<path d="M19.2,39.1c0,0.8-0.2,1.4-0.6,1.9c-0.4,0.4-1,0.7-1.7,0.7c-0.4,0-0.8-0.1-1.2-0.3c-0.3-0.2-0.6-0.5-0.8-0.9
			s-0.3-0.8-0.3-1.3c0-0.8,0.2-1.4,0.6-1.9c0.4-0.4,1-0.7,1.7-0.7c0.7,0,1.2,0.2,1.6,0.7C19,37.7,19.2,38.3,19.2,39.1z M15.5,39.1
			c0,0.6,0.1,1.1,0.4,1.4c0.2,0.3,0.6,0.5,1.1,0.5s0.9-0.2,1.1-0.5c0.3-0.3,0.4-0.8,0.4-1.4c0-0.6-0.1-1.1-0.4-1.4
			c-0.3-0.3-0.6-0.5-1.1-0.5s-0.9,0.2-1.1,0.5C15.6,38,15.5,38.4,15.5,39.1z"/>
		<path d="M23.9,41.5v-3.2c0-0.4-0.1-0.7-0.3-0.9s-0.5-0.3-0.9-0.3c-0.5,0-0.9,0.1-1.1,0.4c-0.2,0.3-0.4,0.7-0.4,1.4v2.6h-0.7v-4.9
			h0.6l0.1,0.7l0,0c0.2-0.2,0.4-0.4,0.6-0.6c0.3-0.1,0.6-0.2,0.9-0.2c0.6,0,1,0.1,1.3,0.4c0.3,0.3,0.4,0.7,0.4,1.4v3.2
			C24.4,41.5,23.9,41.5,23.9,41.5z"/>
		<path d="M29.5,41.5v-3.2c0-0.4-0.1-0.7-0.3-0.9s-0.5-0.3-0.9-0.3c-0.5,0-0.9,0.1-1.1,0.4c-0.2,0.3-0.4,0.7-0.4,1.4v2.6h-0.7v-4.9
			h0.6l0.1,0.7l0,0c0.2-0.2,0.4-0.4,0.6-0.6c0.3-0.1,0.6-0.2,0.9-0.2c0.6,0,1,0.1,1.3,0.4c0.3,0.3,0.4,0.7,0.4,1.4v3.2
			C30,41.5,29.5,41.5,29.5,41.5z"/>
		<path d="M33.8,41.6c-0.7,0-1.3-0.2-1.7-0.7c-0.4-0.4-0.6-1.1-0.6-1.8c0-0.8,0.2-1.4,0.6-1.9c0.4-0.5,0.9-0.7,1.6-0.7
			c0.6,0,1.1,0.2,1.5,0.6s0.5,0.9,0.5,1.6v0.5h-3.4c0,0.6,0.2,1,0.4,1.3c0.3,0.3,0.7,0.4,1.2,0.4s1-0.1,1.6-0.3v0.7
			c-0.3,0.1-0.5,0.2-0.7,0.2S34.1,41.6,33.8,41.6z M33.6,37.2c-0.4,0-0.7,0.1-0.9,0.4c-0.2,0.3-0.4,0.6-0.4,1.1h2.6
			c0-0.5-0.1-0.8-0.3-1.1S34,37.2,33.6,37.2z"/>
		<path d="M38.8,41.6c-0.7,0-1.3-0.2-1.6-0.7c-0.4-0.4-0.6-1.1-0.6-1.9c0-0.8,0.2-1.5,0.6-1.9c0.4-0.4,1-0.7,1.7-0.7
			c0.2,0,0.5,0,0.7,0.1s0.4,0.1,0.6,0.2L40,37.3c-0.2-0.1-0.3-0.1-0.5-0.2c-0.2,0-0.4-0.1-0.5-0.1c-1,0-1.5,0.6-1.5,1.9
			c0,0.6,0.1,1.1,0.4,1.4s0.6,0.5,1.1,0.5c0.4,0,0.8-0.1,1.3-0.3v0.7C39.7,41.5,39.3,41.6,38.8,41.6z"/>
		<path d="M42.8,41c0.1,0,0.3,0,0.4,0s0.2,0,0.3-0.1v0.6c-0.1,0-0.2,0.1-0.4,0.1s-0.3,0-0.4,0c-0.9,0-1.4-0.5-1.4-1.5v-2.9h-0.7
			v-0.4l0.7-0.3l0.3-1H42v1.1h1.4v0.6H42v2.9c0,0.3,0.1,0.5,0.2,0.7C42.4,40.9,42.6,41,42.8,41z"/>
		<path d="M53,39.8c0,0.6-0.2,1-0.6,1.3c-0.4,0.3-1,0.5-1.7,0.5c-0.8,0-1.4-0.1-1.8-0.3v-0.7c0.3,0.1,0.6,0.2,0.9,0.3
			c0.3,0.1,0.6,0.1,0.9,0.1c0.5,0,0.9-0.1,1.1-0.3c0.3-0.2,0.4-0.5,0.4-0.8c0-0.2,0-0.4-0.1-0.6c-0.1-0.1-0.2-0.3-0.5-0.4
			s-0.5-0.3-1-0.4c-0.6-0.2-1-0.5-1.3-0.8C49.1,37.4,49,37,49,36.5s0.2-0.9,0.6-1.2s0.9-0.4,1.5-0.4s1.2,0.1,1.8,0.4L52.7,36
			c-0.5-0.2-1.1-0.3-1.6-0.3c-0.4,0-0.7,0.1-0.9,0.3s-0.3,0.4-0.3,0.7c0,0.2,0,0.4,0.1,0.6s0.2,0.3,0.4,0.4c0.2,0.1,0.5,0.3,0.9,0.4
			c0.7,0.2,1.2,0.5,1.4,0.8S53,39.3,53,39.8z"/>
		<path d="M57.6,41.5v-3.2c0-0.4-0.1-0.7-0.3-0.9s-0.5-0.3-0.9-0.3c-0.5,0-0.9,0.1-1.1,0.4C55.1,37.9,55,38.3,55,39v2.6h-0.7v-7H55
			v2.1c0,0.3,0,0.5,0,0.6l0,0c0.1-0.2,0.4-0.4,0.6-0.6s0.6-0.2,0.9-0.2c0.6,0,1,0.1,1.3,0.4c0.3,0.3,0.4,0.7,0.4,1.4v3.2H57.6z"/>
		<path d="M62.9,41.5l-0.1-0.7l0,0c-0.2,0.3-0.5,0.5-0.7,0.6s-0.5,0.2-0.9,0.2c-0.5,0-0.9-0.1-1.1-0.4s-0.4-0.6-0.4-1.1
			c0-1,0.8-1.5,2.4-1.6h0.8v-0.3c0-0.4-0.1-0.7-0.2-0.9c-0.2-0.2-0.4-0.3-0.8-0.3c-0.4,0-0.9,0.1-1.4,0.4L60,37
			c0.2-0.1,0.5-0.2,0.8-0.3s0.6-0.1,0.9-0.1c0.6,0,1,0.1,1.3,0.4s0.4,0.7,0.4,1.2v3.3C63.4,41.5,62.9,41.5,62.9,41.5z M61.2,41
			c0.5,0,0.8-0.1,1.1-0.4s0.4-0.6,0.4-1.1v-0.4H62c-0.6,0-1,0.1-1.3,0.3s-0.4,0.4-0.4,0.8c0,0.3,0.1,0.5,0.2,0.6
			C60.7,40.9,60.9,41,61.2,41z"/>
		<path d="M67.2,36.5c0.2,0,0.4,0,0.6,0.1l-0.1,0.7c-0.2,0-0.4-0.1-0.5-0.1c-0.4,0-0.7,0.2-1,0.5s-0.4,0.7-0.4,1.2v2.6h-0.7v-4.9
			h0.6l0.1,0.9l0,0c0.2-0.3,0.4-0.6,0.7-0.7C66.6,36.6,66.9,36.5,67.2,36.5z"/>
		<path d="M70.7,41.6c-0.7,0-1.3-0.2-1.7-0.7c-0.4-0.4-0.6-1.1-0.6-1.8c0-0.8,0.2-1.4,0.6-1.9s0.9-0.7,1.6-0.7
			c0.6,0,1.1,0.2,1.5,0.6c0.4,0.4,0.5,0.9,0.5,1.6v0.5h-3.4c0,0.6,0.2,1,0.4,1.3s0.7,0.4,1.2,0.4s1-0.1,1.6-0.3v0.7
			c-0.3,0.1-0.5,0.2-0.7,0.2C71.4,41.6,71.1,41.6,70.7,41.6z M70.5,37.2c-0.4,0-0.7,0.1-0.9,0.4c-0.2,0.3-0.4,0.6-0.4,1.1h2.6
			c0-0.5-0.1-0.8-0.3-1.1C71.2,37.3,70.9,37.2,70.5,37.2z"/>
		<path d="M81.6,41.5H78V35h3.6v0.7h-2.9v2.1h2.7v0.7h-2.7v2.4h2.9V41.5z"/>
		<path d="M85.9,41.5l-0.1-0.7l0,0c-0.2,0.3-0.5,0.5-0.7,0.6s-0.5,0.2-0.9,0.2c-0.5,0-0.9-0.1-1.1-0.4s-0.4-0.6-0.4-1.1
			c0-1,0.8-1.5,2.4-1.6h0.8v-0.3c0-0.4-0.1-0.7-0.2-0.9c-0.2-0.2-0.4-0.3-0.8-0.3s-0.9,0.1-1.4,0.4L83.1,37c0.2-0.1,0.5-0.2,0.8-0.3
			s0.6-0.1,0.9-0.1c0.6,0,1,0.1,1.3,0.4c0.3,0.3,0.4,0.7,0.4,1.2v3.3C86.5,41.5,85.9,41.5,85.9,41.5z M84.3,41
			c0.5,0,0.8-0.1,1.1-0.4s0.4-0.6,0.4-1.1v-0.4h-0.7c-0.6,0-1,0.1-1.3,0.3s-0.4,0.4-0.4,0.8c0,0.3,0.1,0.5,0.2,0.6
			C83.7,40.9,84,41,84.3,41z"/>
		<path d="M90.2,36.5c0.2,0,0.4,0,0.6,0.1l-0.1,0.7c-0.2,0-0.4-0.1-0.5-0.1c-0.4,0-0.7,0.2-1,0.5s-0.4,0.7-0.4,1.2v2.6H88v-4.9h0.6
			l0.1,0.9l0,0c0.2-0.3,0.4-0.6,0.7-0.7C89.7,36.6,89.9,36.5,90.2,36.5z"/>
		<path d="M95.1,41.5v-3.2c0-0.4-0.1-0.7-0.3-0.9s-0.5-0.3-0.9-0.3c-0.5,0-0.9,0.1-1.1,0.4c-0.2,0.3-0.4,0.7-0.4,1.4v2.6h-0.7v-4.9
			h0.6l0.1,0.7l0,0c0.2-0.2,0.4-0.4,0.6-0.6c0.3-0.1,0.6-0.2,0.9-0.2c0.6,0,1,0.1,1.3,0.4s0.4,0.7,0.4,1.4v3.2
			C95.6,41.5,95.1,41.5,95.1,41.5z"/>
	</g>
	<path d="M45.8,39.1c-0.2-0.2-0.3-0.4-0.3-0.6c0-0.2,0.1-0.4,0.3-0.6s0.4-0.3,0.6-0.3c0.2,0,0.4,0.1,0.6,0.3
		c0.2,0.2,0.3,0.4,0.3,0.6c0,0.2-0.1,0.4-0.3,0.6s-0.4,0.3-0.6,0.3C46.2,39.3,46,39.2,45.8,39.1z"/>
	<path d="M74.4,39.1c-0.2-0.2-0.3-0.4-0.3-0.6c0-0.2,0.1-0.4,0.3-0.6s0.4-0.3,0.6-0.3s0.4,0.1,0.6,0.3s0.3,0.4,0.3,0.6
		c0,0.2-0.1,0.4-0.3,0.6c-0.2,0.2-0.4,0.3-0.6,0.3C74.8,39.3,74.6,39.2,74.4,39.1z"/>
</g>
</svg>
