<svg width="22" height="13" viewBox="0 0 22 13" fill="none" xmlns="http://www.w3.org/2000/svg">
<path d="M11 0C15.2033 0 19.0151 2.27968 21.8279 5.9825C22.0574 6.28586 22.0574 6.70968 21.8279 7.01304C19.0151 10.7203 15.2033 13 11 13C6.79667 13 2.98486 10.7203 0.17214 7.0175C-0.0573788 6.71414 -0.0573788 6.29032 0.17214 5.98696C2.98486 2.27969 6.79667 0 11 0ZM10.6985 11.0772C13.4887 11.2512 15.7929 8.97152 15.6174 6.2011C15.4734 3.91695 13.6057 2.06555 11.3015 1.92279C8.5113 1.7488 6.20712 4.02848 6.38263 6.7989C6.53115 9.07859 8.39879 10.93 10.6985 11.0772ZM10.838 8.96259C12.3411 9.05628 13.5832 7.82944 13.4842 6.3394C13.4077 5.1081 12.3996 4.11325 11.1575 4.03294C9.65439 3.93926 8.41229 5.1661 8.5113 6.65614C8.59231 7.8919 9.60039 8.88675 10.838 8.96259Z" fill="black" fill-opacity="0.3"/>
<path d="M3 1L20 12" stroke="#787878" stroke-width="2" stroke-linecap="round" stroke-linejoin="round"/>
</svg>
