<svg width="136" height="40" viewBox="0 0 136 40" fill="none" xmlns="http://www.w3.org/2000/svg">
<path fill-rule="evenodd" clip-rule="evenodd" d="M24.0995 15.4206C25.241 14.3871 27.0382 14.468 27.797 15.8079C30.6818 20.9026 29.7644 27.4917 25.2429 31.5855C20.7214 35.6792 14.0738 35.9394 9.28995 32.5641C8.03177 31.6764 8.12935 29.8799 9.27083 28.8464L24.0995 15.4206Z" fill="#603BE1"/>
<path fill-rule="evenodd" clip-rule="evenodd" d="M10.4367 24.5785C9.29515 25.612 7.49776 25.5311 6.73911 24.1911C3.85488 19.0965 4.77242 12.508 9.2937 8.41443C13.815 4.32089 20.462 4.06049 25.2458 7.4352C26.5041 8.32286 26.4066 10.1194 25.2651 11.153L10.4367 24.5785Z" fill="#603BE1"/>
<path d="M51.1104 27.7999C52.1192 27.7999 53.0142 27.6876 53.7952 27.4307C54.5763 27.1739 55.2109 26.8368 55.699 26.3874C56.1872 25.9379 56.5451 25.4243 56.8055 24.8464C57.0496 24.2685 57.1797 23.6265 57.1797 22.9362C57.1797 22.2781 57.0821 21.7002 56.8869 21.1866C56.5451 20.384 55.8455 19.6938 54.7715 19.1159C54.3485 18.9072 53.2745 18.4578 51.5497 17.7836C50.9639 17.5589 50.5083 17.3663 50.1666 17.1737C49.8087 16.9971 49.532 16.7884 49.3042 16.5637C49.0764 16.339 48.9625 16.0821 48.9625 15.8253C48.9625 15.3759 49.1415 15.0388 49.5158 14.798C49.89 14.5733 50.2968 14.4449 50.7361 14.4449C51.1755 14.4449 51.6148 14.5091 52.0704 14.6214C52.5098 14.7498 52.9654 14.9425 53.4535 15.1993C53.9417 15.4561 54.3973 15.7771 54.8203 16.1624L56.6916 13.2731C54.9993 11.9408 53.0793 11.2666 50.9314 11.2666C49.2717 11.2666 47.8886 11.7 46.8147 12.5668C45.7407 13.4336 45.2038 14.5091 45.2038 15.8093C45.2038 16.3229 45.2526 16.8045 45.3828 17.2218C45.4967 17.6552 45.6756 18.0404 45.9034 18.3775C46.1312 18.7146 46.3916 19.0196 46.6845 19.2764C46.9611 19.5493 47.3028 19.7901 47.6933 20.0148C48.0839 20.2395 48.4744 20.4161 48.8649 20.5766C49.2391 20.7371 49.6785 20.8977 50.1666 21.0582C51.387 21.4755 52.2331 21.8126 52.6888 22.0694C53.1444 22.3263 53.3884 22.6313 53.3884 23.0165C53.3884 23.498 53.1769 23.8672 52.7701 24.1562C52.3633 24.4451 51.8101 24.5896 51.1104 24.5896C50.1341 24.5896 49.2717 24.4451 48.5232 24.1401C47.7747 23.8351 47.075 23.3536 46.4241 22.6955L44.5366 25.4564C46.3265 27.0294 48.5232 27.7999 51.1104 27.7999Z" fill="#603BE1"/>
<path d="M88.3106 11.2666C87.2716 11.2666 86.3008 11.5069 85.381 11.9555C84.4613 12.404 83.6778 13.0609 83.0135 13.9099H82.9624V11.2826H79.062V27.7999H82.9624V19.9175C82.9624 19.0524 83.1327 18.2674 83.4904 17.5785C83.8481 16.8897 84.3761 16.345 85.0915 15.9285C85.8068 15.528 86.6414 15.3197 87.6123 15.3197C87.9529 15.3197 88.3447 15.3357 88.7875 15.3678V11.2826C88.6853 11.2826 88.532 11.2666 88.3106 11.2666Z" fill="#603BE1"/>
<path d="M95.3134 27.8C96.282 27.8 97.07 27.7186 97.6775 27.5559C98.3264 27.3821 100.059 26.1162 100.458 25.72L98.4983 23.6182C97.6118 24.09 96.7909 24.3178 96.0686 24.3178C95.5268 24.3178 95.1328 24.1551 94.8701 23.7971C94.6074 23.4554 94.4925 22.8697 94.4925 22.0561V14.4572H99.8178V11.0429H94.4925V3H90.7329V11.2842V14.4572V22.3978C90.7329 24.1877 91.1269 25.5219 91.9314 26.4332C92.7358 27.3444 93.8686 27.8 95.3134 27.8Z" fill="#603BE1"/>
<path d="M117.478 19.3406C117.478 17.7997 117.148 16.4032 116.504 15.1832C115.843 13.9633 114.919 13.0162 113.697 12.31C112.475 11.6197 111.056 11.2666 109.471 11.2666C108.332 11.2666 107.275 11.4753 106.284 11.8766C105.294 12.2779 104.435 12.8397 103.725 13.546C102.999 14.2683 102.438 15.1351 102.042 16.1624C101.629 17.1897 101.431 18.3133 101.431 19.5172C101.431 21.1545 101.794 22.6152 102.537 23.8833C103.263 25.1514 104.27 26.1145 105.558 26.7887C106.829 27.4628 108.266 27.7999 109.867 27.7999C111.402 27.7999 112.756 27.527 113.928 26.9813C115.1 26.4355 116.058 25.6971 116.817 24.7661L114.176 22.567C113.136 23.8351 111.765 24.4612 110.065 24.4612C108.843 24.4612 107.82 24.1401 106.978 23.482C106.136 22.8399 105.591 21.941 105.36 20.8013H117.379C117.445 20.4161 117.478 19.9346 117.478 19.3406ZM109.669 14.6054C110.362 14.6054 110.99 14.7498 111.551 15.0227C112.112 15.2956 112.558 15.6648 112.905 16.1463C113.251 16.6279 113.515 17.1897 113.681 17.8318H105.426C105.69 16.8045 106.202 16.0179 106.961 15.4561C107.721 14.8943 108.612 14.6054 109.669 14.6054Z" fill="#603BE1"/>
<path d="M132.179 3V13.2357H132.097C130.844 11.7711 129.096 11.0388 126.886 11.0388C125.764 11.0388 124.709 11.2504 123.736 11.6735C122.746 12.0966 121.905 12.6824 121.212 13.4147C120.503 14.1632 119.943 15.0583 119.547 16.0997C119.134 17.1575 118.937 18.2803 118.937 19.4845C118.937 20.4771 119.052 21.4047 119.316 22.2834C119.58 23.1622 119.943 23.927 120.421 24.5942C120.899 25.2614 121.46 25.8309 122.119 26.3191C122.779 26.8073 123.505 27.1816 124.329 27.4257C125.154 27.6861 126.012 27.8 126.919 27.8C129.227 27.8 131.025 26.9863 132.278 25.359H132.344V27.8H135.956V3H132.179ZM127.512 24.4152C126.11 24.4152 124.973 23.9596 124.098 23.0483C123.208 22.137 122.779 20.9491 122.779 19.5008C122.779 18.7522 122.895 18.0525 123.142 17.4016C123.389 16.7506 123.736 16.2136 124.164 15.7905C124.593 15.3674 125.088 15.0257 125.665 14.7816C126.242 14.5538 126.869 14.4236 127.529 14.4236C128.931 14.4236 130.085 14.9118 130.976 15.8719C131.866 16.8483 132.328 18.0525 132.328 19.5008C132.328 20.9653 131.866 22.137 130.943 23.0483C130.019 23.9596 128.865 24.4152 127.512 24.4152Z" fill="#603BE1"/>
<path d="M135.47 19.5333C135.47 24.0988 131.66 27.7999 126.96 27.7999C122.26 27.7999 118.45 24.0988 118.45 19.5333C118.45 14.9677 122.26 11.2666 126.96 11.2666C131.66 11.2666 135.47 14.9677 135.47 19.5333Z" fill="#603BE1"/>
<path d="M76.6307 19.7764C76.6307 24.4762 72.8207 28.2862 68.1209 28.2862C63.421 28.2862 59.6111 24.4762 59.6111 19.7764C59.6111 15.0766 63.421 11.2666 68.1209 11.2666C72.8207 11.2666 76.6307 15.0766 76.6307 19.7764Z" fill="#603BE1"/>
<path d="M132.066 19.7765C132.066 22.5964 129.78 24.8824 126.96 24.8824C124.14 24.8824 121.854 22.5964 121.854 19.7765C121.854 16.9566 124.14 14.6707 126.96 14.6707C129.78 14.6707 132.066 16.9566 132.066 19.7765Z" fill="white"/>
<path d="M73.2269 19.7765C73.2269 22.5964 70.9409 24.8824 68.121 24.8824C65.3011 24.8824 63.0151 22.5964 63.0151 19.7765C63.0151 16.9566 65.3011 14.6707 68.121 14.6707C70.9409 14.6707 73.2269 16.9566 73.2269 19.7765Z" fill="white"/>
</svg>
