<svg width="19" height="16" viewBox="0 0 19 16" fill="none" xmlns="http://www.w3.org/2000/svg">
<path d="M17.7205 7.29C17.6275 7.19627 17.5169 7.12187 17.3951 7.0711C17.2732 7.02034 17.1425 6.9942 17.0105 6.9942C16.8785 6.9942 16.7478 7.02034 16.6259 7.0711C16.5041 7.12187 16.3935 7.19627 16.3005 7.29L15.9905 7.60999C15.9141 6.04577 15.3804 4.53836 14.4553 3.27466C13.5303 2.01096 12.2547 1.04656 10.7867 0.501039C9.31868 -0.0444825 7.72284 -0.147133 6.19705 0.205815C4.67125 0.558764 3.2826 1.35179 2.20329 2.48656C1.12397 3.62133 0.401458 5.04793 0.125334 6.58948C-0.150791 8.13103 0.0316196 9.71973 0.649946 11.1586C1.26827 12.5974 2.29532 13.8232 3.60374 14.6838C4.91216 15.5444 6.44441 16.002 8.01049 16C8.27571 16 8.53006 15.8946 8.7176 15.7071C8.90514 15.5196 9.01049 15.2652 9.01049 15C9.01049 14.7348 8.90514 14.4804 8.7176 14.2929C8.53006 14.1054 8.27571 14 8.01049 14C6.84324 13.9969 5.70226 13.6533 4.72732 13.0114C3.75239 12.3696 2.98585 11.4573 2.52161 10.3863C2.05737 9.31537 1.91559 8.13225 2.11365 6.98193C2.31172 5.8316 2.84101 4.76403 3.63669 3.90999C4.43237 3.05596 5.45989 2.45257 6.59334 2.17373C7.7268 1.89489 8.91698 1.95272 10.0181 2.34014C11.1192 2.72755 12.0833 3.42772 12.7925 4.35487C13.5016 5.28202 13.9249 6.39589 14.0105 7.56L13.7405 7.29C13.5522 7.10169 13.2968 6.9959 13.0305 6.9959C12.7642 6.9959 12.5088 7.10169 12.3205 7.29C12.1322 7.4783 12.0264 7.73369 12.0264 8C12.0264 8.2663 12.1322 8.52169 12.3205 8.70999L14.3205 10.71C14.4135 10.8037 14.5241 10.8781 14.6459 10.9289C14.7678 10.9797 14.8985 11.0058 15.0305 11.0058C15.1625 11.0058 15.2932 10.9797 15.4151 10.9289C15.5369 10.8781 15.6475 10.8037 15.7405 10.71L17.7405 8.70999C17.8329 8.61572 17.9058 8.50407 17.9548 8.3815C18.0039 8.25892 18.0282 8.12784 18.0263 7.99583C18.0245 7.86381 17.9965 7.73347 17.944 7.61233C17.8915 7.49118 17.8155 7.38163 17.7205 7.29Z" fill="#603BE1"/>
</svg>
